<?xml version="1.0" encoding="utf-8"?>
<!-- Generator: Adobe Illustrator 17.0.0, SVG Export Plug-In . SVG Version: 6.00 Build 0)  -->
<!DOCTYPE svg PUBLIC "-//W3C//DTD SVG 1.1//EN" "http://www.w3.org/Graphics/SVG/1.1/DTD/svg11.dtd">
<svg version="1.1" id="图层_1" xmlns="http://www.w3.org/2000/svg" xmlns:xlink="http://www.w3.org/1999/xlink" x="0px" y="0px"
	 width="120px" height="60px" viewBox="0 0 120 60" enable-background="new 0 0 120 60" xml:space="preserve">
<rect x="12.167" y="18" fill="none" stroke="#E9495E" stroke-miterlimit="10" width="99" height="21.833"/>
<rect x="26.875" y="16" fill="#FFFFFF" width="71" height="5.375"/>
<rect x="27" y="30" fill="#FFFFFF" stroke="#E9495E" stroke-miterlimit="10" width="70.875" height="18"/>
<g>
	<path fill="#212121" d="M33.278,14.744v3.268c0,2.917-0.592,5.068-1.777,6.453c-0.237-0.283-0.497-0.574-0.779-0.875
		c0.994-1.212,1.49-3.012,1.49-5.4v-4.375h4.594v-2.83h1.094v1.066h5.524v0.902h-5.524v0.861h6.235l-0.096,2.215
		c-0.355-0.027-0.703-0.041-1.039-0.041l0.096-1.244H33.278z M33.019,23.097h3.514v-4.02h1.066v4.02h1.723V19.05h1.067v4.047h3.842
		v0.93H33.019V23.097z M33.634,16.056l2.994-0.178v-0.916h1.012v0.861l4.102-0.246l0.055,0.889l-4.157,0.239v0.349
		c0,0.41,0.273,0.615,0.82,0.615h2.749c0.619,0,0.975-0.214,1.066-0.643c0.063-0.255,0.117-0.579,0.164-0.971
		c0.301,0.127,0.629,0.25,0.984,0.369c-0.082,0.41-0.164,0.748-0.246,1.012c-0.191,0.756-0.799,1.135-1.818,1.135h-3.09
		c-1.094,0-1.641-0.479-1.641-1.436v-0.369l-2.939,0.164L33.634,16.056z M33.647,19.925l0.82-0.52c0.547,0.702,1.08,1.458,1.6,2.27
		l-0.916,0.588C34.641,21.406,34.14,20.627,33.647,19.925z M40.812,21.607c0.582-0.684,1.129-1.445,1.641-2.283l0.93,0.547
		c-0.594,0.857-1.182,1.641-1.764,2.352L40.812,21.607z"/>
	<path fill="#212121" d="M46.245,17.656c1.304-1.969,2.288-4.179,2.953-6.631l1.162,0.287c-0.378,1.158-0.784,2.238-1.217,3.24v9.98
		h-1.025v-7.841c-0.429,0.802-0.88,1.542-1.354,2.222C46.636,18.567,46.463,18.148,46.245,17.656z M49.977,22.796h5.339
		c0.656-1.754,1.415-4.256,2.276-7.506l1.23,0.369c-0.552,1.691-1.335,4.07-2.352,7.137h3.418v1.012h-9.912V22.796z M50.264,13.5
		h4.819c-0.405-0.684-0.854-1.317-1.347-1.9l0.93-0.643c0.401,0.465,0.897,1.089,1.49,1.873l-1.012,0.67h4.498v1.012h-9.379V13.5z
		 M52.124,15.427c0.602,1.641,1.258,3.627,1.969,5.961l-1.135,0.328c-0.62-2.233-1.244-4.211-1.873-5.934L52.124,15.427z"/>
	<path fill="#212121" d="M67.77,18.927c0.027,0.592,0.063,1.025,0.109,1.299c-2.188,1.376-3.55,2.242-4.088,2.598
		c-0.301,0.209-0.588,0.438-0.861,0.684l-0.779-1.08c0.429-0.383,0.638-0.843,0.629-1.381v-9.502H63.9v9.775
		C64.903,20.718,66.192,19.921,67.77,18.927z M72.008,11.353h1.121v2.461c0,2.52-0.323,4.521-0.971,6.002
		c1.13,1.167,2.196,2.315,3.199,3.445l-0.943,0.861c-0.935-1.158-1.866-2.258-2.796-3.302c-1.053,1.6-2.637,2.851-4.751,3.753
		c-0.21-0.283-0.456-0.597-0.738-0.943c2.297-1.057,3.842-2.283,4.635-3.678c0.848-1.367,1.263-3.422,1.244-6.166V11.353z
		 M67.209,11.039c0.61,0.966,1.29,2.124,2.037,3.473l-1.066,0.602c-0.711-1.404-1.358-2.588-1.941-3.555L67.209,11.039z"/>
	<path fill="#212121" d="M77.044,19.119c1.185-1.121,2.297-2.616,3.336-4.484l0.957,0.492c-0.419,0.702-0.839,1.358-1.258,1.969
		v7.424h-1.025v-6.036c-0.506,0.638-1.017,1.214-1.531,1.729C77.386,19.857,77.227,19.492,77.044,19.119z M77.071,14.839
		c1.285-1.012,2.384-2.297,3.295-3.855l0.971,0.561c-1.157,1.723-2.393,3.145-3.705,4.266
		C77.468,15.491,77.281,15.167,77.071,14.839z M81.269,15.851h4.088v-1.969H81.87v-0.943h3.486v-1.914h1.094v1.914h3.514v0.943
		H86.45v1.969h4.061v0.957h-9.242V15.851z M81.296,18.531h6.098v-1.299h1.094v1.299h2.133v0.957h-2.133v3.199
		c0,1.076-0.569,1.613-1.709,1.613c-0.528,0-1.244-0.004-2.146-0.014c-0.055-0.328-0.128-0.711-0.219-1.148
		c0.793,0.064,1.504,0.096,2.133,0.096c0.565,0,0.848-0.31,0.848-0.93v-2.816h-6.098V18.531z M82.28,20.541l0.793-0.615
		c0.656,0.711,1.235,1.381,1.736,2.01l-0.875,0.67C83.424,21.903,82.873,21.215,82.28,20.541z"/>
</g>
<g>
	<polygon fill-rule="evenodd" clip-rule="evenodd" fill="#E1780F" points="32.294,43.17 32.294,34.747 34.027,34.747 39.104,40.073 
		36.751,40.073 34.027,37.224 34.027,43.17 	"/>
	<rect x="39.351" y="34.747" fill-rule="evenodd" clip-rule="evenodd" fill="#E9495F" width="1.733" height="8.424"/>
	<rect x="42.447" y="34.747" fill-rule="evenodd" clip-rule="evenodd" fill="#E9495F" width="1.857" height="8.424"/>
	<rect x="65.105" y="34.747" fill-rule="evenodd" clip-rule="evenodd" fill="#E9495F" width="1.733" height="8.424"/>
	<rect x="71.915" y="34.747" fill-rule="evenodd" clip-rule="evenodd" fill="#E9495F" width="1.733" height="8.424"/>
	<polygon fill-rule="evenodd" clip-rule="evenodd" fill="#E9495F" points="72.163,38.091 68.572,38.215 67.953,39.826 
		72.163,39.826 	"/>
	<rect x="86.154" y="34.747" fill-rule="evenodd" clip-rule="evenodd" fill="#E1780F" width="1.857" height="8.424"/>
	<path fill-rule="evenodd" clip-rule="evenodd" fill="#E1780F" d="M87.269,34.747h4.705c0,0,2.229,0,2.476,2.106
		c0,0,0.371,2.354-2.353,2.725h-2.972l0.991-1.982c0.248,0.867,0.619,0.867,1.61,0.743c1.238-0.124,1.238-2.23-0.495-2.23H87.64
		L87.269,34.747z"/>
	<path fill-rule="evenodd" clip-rule="evenodd" fill="#E9495F" d="M45.79,34.747v5.203c0,5.079,8.791,4.955,8.296-0.372l0.124-4.707
		l-1.733-0.124v4.831c0,3.84-4.953,3.345-4.953,0.248v-5.079H45.79z"/>
	<path fill-rule="evenodd" clip-rule="evenodd" fill="#E9495F" d="M62.381,37.224c0-0.124-1.61-1.363-3.591-1.239
		c-1.981,0-1.981,1.982,0.371,1.982c2.476,0.124,3.962,0.743,4.086,2.478c0.124,1.734-2.353,4.584-7.801,1.734l0.619-1.487
		c0,0,0.743,0.743,2.972,1.115c2.105,0.372,3.095-0.991,1.733-1.858c-1.362-0.743-4.457,0.124-5.077-2.23
		c-0.743-2.354,2.6-5.079,7.429-1.982L62.381,37.224z"/>
	<path fill-rule="evenodd" clip-rule="evenodd" fill="#E9495F" d="M74.887,39.082c0-0.124,0-4.584,4.953-4.584
		c0,0,2.105,0,3.591,1.363c1.486,1.487,1.733,3.716,0.495,5.575c-0.619,0.991-1.857,1.858-3.962,1.982
		C79.963,43.418,75.258,43.542,74.887,39.082L74.887,39.082z M76.744,39.082c0-0.124,0-2.973,3.095-2.973c0,0,1.362,0,2.229,0.867
		c0.991,0.991,1.114,2.354,0.371,3.592c-0.495,0.619-1.238,1.115-2.6,1.239C79.84,41.808,76.992,41.808,76.744,39.082L76.744,39.082
		z"/>
</g>
<g>
</g>
<g>
</g>
<g>
</g>
<g>
</g>
<g>
</g>
<g>
</g>
</svg>
